<svg width="55" height="55" fill="none" xmlns="http://www.w3.org/2000/svg"><circle cx="27.243" cy="27.243" r="27.243" fill="url(#a)"/><g clip-path="url(#b)" fill="#fff"><path d="m18.848 22.601 2.073-2.072 2.072 2.072a.795.795 0 0 0 1.128 0 .798.798 0 0 0 0-1.127L22.05 19.4l2.072-2.073a.798.798 0 0 0-1.128-1.128l-2.072 2.073-2.073-2.073a.798.798 0 0 0-1.128 1.128l2.073 2.073-2.073 2.073a.797.797 0 1 0 1.128 1.127Zm15.819 9.419a.798.798 0 0 0-1.128 0l-2.072 2.072-2.073-2.072a.798.798 0 0 0-1.128 1.128l2.073 2.072-2.073 2.073a.797.797 0 0 0 1.128 1.128l2.073-2.073 2.072 2.073a.795.795 0 0 0 1.128 0 .798.798 0 0 0 0-1.128l-2.073-2.073 2.073-2.072a.797.797 0 0 0 0-1.128Zm.063-11.183-3.216-2.795a.797.797 0 1 0-1.047 1.203l1.706 1.483c-5.034.658-8.015 3.289-9.672 5.513-1.53 2.054-2.202 4.075-2.443 4.966a3.654 3.654 0 0 1 1.619.147 13.86 13.86 0 0 1 2.142-4.212c2.073-2.754 4.955-4.377 8.58-4.838l-1.59 1.828a.797.797 0 1 0 1.204 1.046l2.795-3.216a.797.797 0 0 0-.078-1.125ZM20.843 32.81a2.36 2.36 0 0 0-2.357 2.357 2.36 2.36 0 0 0 2.357 2.357 2.36 2.36 0 0 0 2.357-2.357 2.36 2.36 0 0 0-2.357-2.356ZM40.13 18.927a2.36 2.36 0 0 0-2.357 2.357 2.36 2.36 0 0 0 2.357 2.357 2.36 2.36 0 0 0 2.357-2.357 2.36 2.36 0 0 0-2.357-2.357Z"/></g><defs><linearGradient id="a" x1="-1.864" y1="2.566" x2="37.738" y2="62.131" gradientUnits="userSpaceOnUse"><stop stop-color="#FDFDFD" stop-opacity=".5"/><stop offset="1" stop-color="#A3D7F4" stop-opacity=".1"/></linearGradient><clipPath id="b"><path fill="#fff" transform="translate(17.486 14.81)" d="M0 0h25v25H0z"/></clipPath></defs></svg>