<svg width="53" height="53" fill="none" xmlns="http://www.w3.org/2000/svg"><g filter="url(#a)"><circle cx="26.5" cy="26.5" r="26.5" fill="url(#b)"/></g><g filter="url(#c)"><path d="M29.505 14h2.777c.397 0 .718.317.718.71v15.706a.697.697 0 0 1-.295.57l-9.548 6.878a.722.722 0 0 1-1-.152l-1.649-2.223v-.006a.703.703 0 0 1 .16-.988l8.125-5.802V14.71a.707.707 0 0 1 .712-.709Z" fill="#fff"/></g><defs><filter id="a" x="-8" y="-8" width="69" height="69" filterUnits="userSpaceOnUse" color-interpolation-filters="sRGB"><feFlood flood-opacity="0" result="BackgroundImageFix"/><feGaussianBlur in="BackgroundImageFix" stdDeviation="4"/><feComposite in2="SourceAlpha" operator="in" result="effect1_backgroundBlur_47_2"/><feBlend in="SourceGraphic" in2="effect1_backgroundBlur_47_2" result="shape"/></filter><filter id="c" x="12.372" y="8" width="28.628" height="40" filterUnits="userSpaceOnUse" color-interpolation-filters="sRGB"><feFlood flood-opacity="0" result="BackgroundImageFix"/><feColorMatrix in="SourceAlpha" values="0 0 0 0 0 0 0 0 0 0 0 0 0 0 0 0 0 0 127 0" result="hardAlpha"/><feOffset dy="2"/><feGaussianBlur stdDeviation="4"/><feColorMatrix values="0 0 0 0 0 0 0 0 0 0 0 0 0 0 0 0 0 0 0.25 0"/><feBlend in2="BackgroundImageFix" result="effect1_dropShadow_47_2"/><feBlend in="SourceGraphic" in2="effect1_dropShadow_47_2" result="shape"/></filter><linearGradient id="b" x1="-1.813" y1="2.496" x2="36.708" y2="60.436" gradientUnits="userSpaceOnUse"><stop stop-color="#FDFDFD" stop-opacity=".5"/><stop offset="1" stop-color="#A3D7F4" stop-opacity=".1"/></linearGradient></defs></svg>