<svg width="55" height="55" fill="none" xmlns="http://www.w3.org/2000/svg"><circle cx="27.243" cy="27.243" r="27.243" fill="url(#a)"/><path d="M36.125 24.813v11.03a2.719 2.719 0 0 1-2.719 2.72H20.72a2.719 2.719 0 0 1-2.72-2.72V17.72A2.719 2.719 0 0 1 20.719 15h5.593c.48 0 .941.191 1.281.53l8.001 8.002c.34.34.53.8.531 1.281Z" stroke="#fff" stroke-width="2" stroke-linejoin="round"/><path d="M27.063 15.453v6.797a1.812 1.812 0 0 0 1.812 1.813h6.797" stroke="#fff" stroke-width="2" stroke-linecap="round" stroke-linejoin="round"/><defs><linearGradient id="a" x1="-1.864" y1="2.566" x2="37.738" y2="62.131" gradientUnits="userSpaceOnUse"><stop stop-color="#FDFDFD" stop-opacity=".5"/><stop offset="1" stop-color="#A3D7F4" stop-opacity=".1"/></linearGradient></defs></svg>