<svg width="53" height="53" fill="none" xmlns="http://www.w3.org/2000/svg"><g filter="url(#a)"><circle cx="26.5" cy="26.5" r="26.5" fill="url(#b)"/></g><path d="M20.405 38H15V27.2h2.3L20.405 38Zm15.296-15.6h-6.9v-4.8a3.68 3.68 0 0 0-1.01-2.546A3.38 3.38 0 0 0 25.35 14H24.2v4.8l-3.336 4.35a6.19 6.19 0 0 0-1.265 3.762V28.4l2.415 8.4h9.589a4.48 4.48 0 0 0 2.83-1.017 4.823 4.823 0 0 0 1.632-2.619l1.865-7.782a2.5 2.5 0 0 0 .019-1.08 2.448 2.448 0 0 0-.437-.978 2.323 2.323 0 0 0-.803-.68A2.22 2.22 0 0 0 35.7 22.4Z" fill="#fff"/><defs><linearGradient id="b" x1="-1.813" y1="2.496" x2="36.708" y2="60.436" gradientUnits="userSpaceOnUse"><stop stop-color="#FDFDFD" stop-opacity=".5"/><stop offset="1" stop-color="#A3D7F4" stop-opacity=".1"/></linearGradient><filter id="a" x="-8" y="-8" width="69" height="69" filterUnits="userSpaceOnUse" color-interpolation-filters="sRGB"><feFlood flood-opacity="0" result="BackgroundImageFix"/><feGaussianBlur in="BackgroundImageFix" stdDeviation="4"/><feComposite in2="SourceAlpha" operator="in" result="effect1_backgroundBlur_1_199"/><feBlend in="SourceGraphic" in2="effect1_backgroundBlur_1_199" result="shape"/></filter></defs></svg>