<svg width="237" height="40" fill="none" xmlns="http://www.w3.org/2000/svg"><path fill-rule="evenodd" clip-rule="evenodd" d="M0 23.92C0 31.676 4.278 39.5 13.858 39.5c9.57 0 13.857-7.823 13.857-15.58 0-5.3-1.758-11.4-4.692-16.33C20.17 2.83 16.741 0 13.858 0c-2.893 0-6.322 2.83-9.15 7.59C1.757 12.52 0 18.62 0 23.92Zm98.388-12.281h-9.7V2.116h29.793v9.523h-9.7v25.745H98.388V11.639Zm42.26 0h15.245V2.116H140.65c-14.006 0-21.484 7.09-21.484 17.634 0 10.545 7.478 17.634 21.484 17.634h15.243v-9.522h-15.245c-6.48 0-10.743-2.359-10.743-8.112s4.263-8.111 10.743-8.111ZM62.006 23.167l5.54-21.05h18.366v35.267H75.52V8.68l-7.555 28.704H56.047l-7.55-28.687v28.687H38.105V2.116h18.36l5.541 21.051ZM174.85 12.34h-3.665v3.45h3.665c.928 0 1.481-.485 1.481-1.38v-.64c0-.92-.477-1.43-1.481-1.43Zm.928 7.411h-9.489V2.116h13.958v4.217h-9.062v2.3h4.593c3.841 0 5.699 1.942 5.699 5.367 0 3.603-1.858 5.75-5.699 5.75Zm16.992-7.207h-3.866l1.933-6.516 1.933 6.516Zm7.43 7.207-5.346-17.634h-7.281l-5.347 17.634h4.57l.978-3.373h6.126l1.004 3.373h5.296Zm12.375 0v-6.823h-5.598v6.823h-5.021V2.116h5.021v6.466h5.598V2.116h5.021V19.75h-5.021Zm13.934-11.168h-.879V2.116h-5.022V19.75h5.022v-6.823h.727l4.645 6.823h5.799l-6.276-9.226 5.774-8.408h-5.297l-4.493 6.466Z" fill="#E30611"/></svg>