<svg width="74" height="91" fill="none" xmlns="http://www.w3.org/2000/svg"><path d="M24.382 31.968h25.284m-1.524 0-1.32 2.51v1.224a9.797 9.797 0 1 1-19.596 0v-1.225l-1.32-2.51m23.76 27.065H24.382" stroke="#fff" stroke-width="3" stroke-linecap="round" stroke-linejoin="round"/><path d="m25.904 59.032 1.32-2.51v-1.225a9.798 9.798 0 0 1 19.596 0v1.225l1.32 2.51" stroke="#fff" stroke-width="3" stroke-linecap="round" stroke-linejoin="round"/><path d="m32 55 .594-.927v-.453c0-.96.464-1.88 1.29-2.56C34.711 50.381 35.831 50 37 50s2.29.381 3.116 1.06c.826.68 1.29 1.6 1.29 2.56v.453L42 55" stroke="#fff" stroke-width="2" stroke-linecap="round" stroke-linejoin="round"/><path d="M38.9 2.698c7.33 6.378 15.46 8.057 22.038 3.205a2.816 2.816 0 0 1 3.188-.004l6.603 4.3a2.91 2.91 0 0 1 .85 4.027 29.054 29.054 0 0 0-5.068 14.518c0 8.45 5.144 15.31 5.144 24.862 0 14.902-7.98 23.602-15.758 25.842C40.997 83.733 43.244 89 37.024 89c-6.22 0-3.973-5.265-18.872-9.552-7.781-2.238-15.758-10.94-15.758-25.842 0-9.552 5.142-16.411 5.142-24.862A29.054 29.054 0 0 0 2.47 14.226a2.911 2.911 0 0 1 .852-4.024L9.925 5.9a2.815 2.815 0 0 1 3.185.004c6.579 4.852 14.708 3.17 22.038-3.205a2.87 2.87 0 0 1 3.752 0Z" stroke="#fff" stroke-width="3" stroke-linecap="round" stroke-linejoin="round"/><path d="M64.623 21.416a2.174 2.174 0 0 0 .326-1.686 2.243 2.243 0 0 0-1.005-1.415l-5.28-3.312a2.311 2.311 0 0 0-1.274-.38 2.31 2.31 0 0 0-1.273.383c-5.26 3.737-11.758 2.443-17.618-2.469a2.347 2.347 0 0 0-1.5-.537m15.087 59.644C40.176 74.944 41.971 79 37 79c-4.972 0-3.176-4.054-15.087-7.356-6.22-1.723-12.598-8.425-12.598-19.901 0-7.356 4.111-12.64 4.111-19.147" stroke="#fff" stroke-width="2.5" stroke-linecap="round" stroke-linejoin="round"/></svg>