<svg width="87" height="87" fill="none" xmlns="http://www.w3.org/2000/svg"><path d="M85.931 27.008 57.172 8.383a1.231 1.231 0 0 0-1.708.373 1.249 1.249 0 0 0 .37 1.72l28.34 18.352h-6.607L45.308 7.937a3.331 3.331 0 0 0-3.616 0L9.433 28.828H2.827L43.498 2.486l5.76 3.73a1.231 1.231 0 0 0 1.709-.372 1.249 1.249 0 0 0-.37-1.72L44.835.394a2.46 2.46 0 0 0-2.672 0L1.07 27.008a2.331 2.331 0 0 0-.973 2.628 2.31 2.31 0 0 0 2.23 1.68H8.56v8.043c0 .99.698 1.82 1.624 2.016v2.189c0 1.136.918 2.06 2.047 2.06h.17v15.24a1.24 1.24 0 0 0 1.235 1.245 1.24 1.24 0 0 0 1.236-1.244V44.38a1.24 1.24 0 0 0-1.236-1.244h-.98v-1.717h8.753v1.716h-.98a1.24 1.24 0 0 0-1.235 1.244v27.485a1.24 1.24 0 0 0 1.235 1.244h.98v1.867h-8.753v-1.867h.98a1.24 1.24 0 0 0 1.236-1.244v-3.18a1.24 1.24 0 0 0-1.236-1.243 1.24 1.24 0 0 0-1.236 1.243v1.936h-.17a2.055 2.055 0 0 0-2.046 2.06v2.189a2.06 2.06 0 0 0-1.624 2.016v2.51H4.182a2.489 2.489 0 0 0-2.477 2.495v2.616A2.489 2.489 0 0 0 4.182 87h78.636a2.489 2.489 0 0 0 2.477-2.494V81.89a2.489 2.489 0 0 0-2.477-2.493H78.44v-2.511c0-.99-.698-1.82-1.624-2.016v-2.19a2.055 2.055 0 0 0-2.047-2.059h-.17V45.623h.17a2.055 2.055 0 0 0 2.047-2.06v-2.189a2.06 2.06 0 0 0 1.624-2.015v-8.043h6.233a2.31 2.31 0 0 0 2.23-1.68 2.33 2.33 0 0 0-.972-2.628ZM43.03 10.029a.867.867 0 0 1 .942 0L73 28.829H14.001l29.028-18.8ZM11.032 31.316h64.936v3.044H11.032v-3.044Zm39.317 43.553v-2.19a2.055 2.055 0 0 0-2.047-2.058h-.17V45.624h.17a2.055 2.055 0 0 0 2.047-2.06v-2.19a2.06 2.06 0 0 0 1.624-2.015v-2.511h9.522v2.511c0 .99.698 1.82 1.624 2.016v2.189c0 1.136.918 2.06 2.046 2.06h.17V70.62h-.17a2.055 2.055 0 0 0-2.046 2.059v2.19a2.06 2.06 0 0 0-1.624 2.015v2.51h-9.522v-2.51c0-.99-.698-1.82-1.624-2.016Zm-26.468 0v-2.19a2.054 2.054 0 0 0-2.046-2.058h-.17V45.624h.17a2.055 2.055 0 0 0 2.046-2.06v-2.19a2.06 2.06 0 0 0 1.624-2.015v-2.511h9.523v2.511c0 .99.697 1.82 1.624 2.016v2.189c0 1.136.917 2.06 2.046 2.06h.17V70.62h-.17a2.055 2.055 0 0 0-2.046 2.059v2.19a2.06 2.06 0 0 0-1.624 2.015v2.51h-9.523v-2.51c0-.99-.697-1.82-1.624-2.016Zm23.016-1.761h.98v1.867h-8.754v-1.867h.98a1.24 1.24 0 0 0 1.236-1.244V44.38a1.24 1.24 0 0 0-1.235-1.244h-.98V41.42h8.753v1.716h-.98a1.24 1.24 0 0 0-1.236 1.244v27.485a1.24 1.24 0 0 0 1.236 1.244Zm-9.01-34.177H37.5v-2.083h12.002v2.083H37.887ZM37.5 77.4c.12.04.25.062.383.062h11.225c.138 0 .27-.024.394-.066v1.999H37.499V77.4ZM11.42 38.931h-.388v-2.083h12.002v2.083H11.42Zm-.388 38.468c.122.041.252.064.388.064h11.225c.136 0 .266-.023.389-.064v1.997H11.032v-1.997Zm71.791 4.49-.003 2.623h-.002l-78.642-.005.006-2.623 78.641.006Zm-7.247-4.426c.137 0 .269-.023.392-.065v1.998H63.966V77.4c.122.04.25.062.385.062h11.225Zm-9.005-34.327h-.98v-1.717h8.753v1.716h-.98a1.24 1.24 0 0 0-1.236 1.244v27.485a1.24 1.24 0 0 0 1.236 1.244h.98v1.867H65.59v-1.867h.98a1.24 1.24 0 0 0 1.236-1.244V44.38a1.24 1.24 0 0 0-1.236-1.243Zm9.397-4.205H63.967v-2.083h12.001v2.083Z" fill="#fff"/></svg>